{
	"asset": {
		"generator": "Blocks 4.0.1RC0 SVR",
		"version": "1.1",
		"copyright": "Unknown"
	},
	"buffers": {
		"model": {
			"byteLength": 418364,
			"type": "arraybuffer",
			"uri": "model.bin"
		}
	},
	"accessors": {
		"accessor_position_m0-PolyPaper23_-106564": {
			"bufferView": "vec3BufferView",
			"byteOffset": 0,
			"byteStride": 12,
			"componentType": 5126,
			"count": 6714,
			"max": [ 2.149924, 2.67574, 2.730014 ],
			"min": [ -0.1200759, 1.790006, 1.140047 ],
			"type": "VEC3"
		 },
		"accessor_normal_m0-PolyPaper23_-106564": {
			"bufferView": "vec3BufferView",
			"byteOffset": 80568,
			"byteStride": 12,
			"componentType": 5126,
			"count": 6714,
			"max": [ 1, 1, 1 ],
			"min": [ -1, -1, -1 ],
			"type": "VEC3"
		 },
		"accessor_color_m0-PolyPaper23_-106564": {
			"bufferView": "vec4BufferView",
			"byteOffset": 0,
			"byteStride": 16,
			"componentType": 5126,
			"count": 6714,
			"max": [ 0.9568627, 0.7647059, 0.6196079, 1 ],
			"min": [ 0.1019608, 0.1019608, 0.1019608, 1 ],
			"type": "VEC4"
		 },
		"accessor_indices_0_m0-PolyPaper23_-106564": {
			"bufferView": "ushortBufferView",
			"byteOffset": 0,
			"byteStride": 0,
			"componentType": 5123,
			"count": 10158,
			"max": [ 6713 ],
			"min": [ 0 ],
			"type": "SCALAR"
		 },
		"accessor_position_m1-PolyGlass24_-106570": {
			"bufferView": "vec3BufferView",
			"byteOffset": 161136,
			"byteStride": 12,
			"componentType": 5126,
			"count": 24,
			"max": [ 1.062952, 2.713731, 2.249185 ],
			"min": [ 0.1633529, 2.491189, 1.646489 ],
			"type": "VEC3"
		 },
		"accessor_normal_m1-PolyGlass24_-106570": {
			"bufferView": "vec3BufferView",
			"byteOffset": 161424,
			"byteStride": 12,
			"componentType": 5126,
			"count": 24,
			"max": [ 0.9998612, 0.9482368, 0.9481087 ],
			"min": [ -0.9998612, -0.9482368, -0.9481078 ],
			"type": "VEC3"
		 },
		"accessor_color_m1-PolyGlass24_-106570": {
			"bufferView": "vec4BufferView",
			"byteOffset": 107424,
			"byteStride": 16,
			"componentType": 5126,
			"count": 24,
			"max": [ 1, 1, 1, 1 ],
			"min": [ 1, 1, 1, 1 ],
			"type": "VEC4"
		 },
		"accessor_indices_0_m1-PolyGlass24_-106570": {
			"bufferView": "ushortBufferView",
			"byteOffset": 20316,
			"byteStride": 0,
			"componentType": 5123,
			"count": 36,
			"max": [ 23 ],
			"min": [ 0 ],
			"type": "SCALAR"
		 },
		"accessor_position_m2-PolyPaper23_-106576": {
			"bufferView": "vec3BufferView",
			"byteOffset": 161712,
			"byteStride": 12,
			"componentType": 5126,
			"count": 2954,
			"max": [ 2.149924, 2.674049, 2.460013 ],
			"min": [ -0.1200758, 1.790007, 1.129918 ],
			"type": "VEC3"
		 },
		"accessor_normal_m2-PolyPaper23_-106576": {
			"bufferView": "vec3BufferView",
			"byteOffset": 197160,
			"byteStride": 12,
			"componentType": 5126,
			"count": 2954,
			"max": [ 1, 1, 1 ],
			"min": [ -1, -1, -1 ],
			"type": "VEC3"
		 },
		"accessor_color_m2-PolyPaper23_-106576": {
			"bufferView": "vec4BufferView",
			"byteOffset": 107808,
			"byteStride": 16,
			"componentType": 5126,
			"count": 2954,
			"max": [ 0.6196079, 0.6196079, 0.6196079, 1 ],
			"min": [ 0.1019608, 0.1019608, 0.1019608, 1 ],
			"type": "VEC4"
		 },
		"accessor_indices_0_m2-PolyPaper23_-106576": {
			"bufferView": "ushortBufferView",
			"byteOffset": 20388,
			"byteStride": 0,
			"componentType": 5123,
			"count": 5148,
			"max": [ 2953 ],
			"min": [ 0 ],
			"type": "SCALAR"
		 }
	},
	"bufferViews": {
		"ushortBufferView": {
			"buffer": "model",
			"byteLength": 30684,
			"byteOffset": 0,
			"target": 34963
		},
		"vec3BufferView": {
			"buffer": "model",
			"byteLength": 232608,
			"byteOffset": 30684,
			"target": 34962
		},
		"vec4BufferView": {
			"buffer": "model",
			"byteLength": 155072,
			"byteOffset": 263292,
			"target": 34962
		}
	},
	"meshes": {
		"mesh_m0-PolyPaper23_-106564": {
			"name": "mesh_m0-PolyPaper23_-106564",
			"primitives": [
				{
					"attributes": {
						"POSITION": "accessor_position_m0-PolyPaper23_-106564",
						"NORMAL": "accessor_normal_m0-PolyPaper23_-106564",
						"COLOR": "accessor_color_m0-PolyPaper23_-106564"
					},
					"indices": "accessor_indices_0_m0-PolyPaper23_-106564",
					"material": "material_mat23",
					"mode": 4
				}
			]
		},
		"mesh_m1-PolyGlass24_-106570": {
			"name": "mesh_m1-PolyGlass24_-106570",
			"primitives": [
				{
					"attributes": {
						"POSITION": "accessor_position_m1-PolyGlass24_-106570",
						"NORMAL": "accessor_normal_m1-PolyGlass24_-106570",
						"COLOR": "accessor_color_m1-PolyGlass24_-106570"
					},
					"indices": "accessor_indices_0_m1-PolyGlass24_-106570",
					"material": "material_mat24",
					"mode": 4
				}
			]
		},
		"mesh_m2-PolyPaper23_-106576": {
			"name": "mesh_m2-PolyPaper23_-106576",
			"primitives": [
				{
					"attributes": {
						"POSITION": "accessor_position_m2-PolyPaper23_-106576",
						"NORMAL": "accessor_normal_m2-PolyPaper23_-106576",
						"COLOR": "accessor_color_m2-PolyPaper23_-106576"
					},
					"indices": "accessor_indices_0_m2-PolyPaper23_-106576",
					"material": "material_mat23",
					"mode": 4
				}
			]
		}
	},
	"shaders": {
		"vertex_mat23": {
			"type": 35633,
			"uri": "https://vr.google.com/shaders/w/vs.glsl"
		},
		"fragment_mat23": {
			"type": 35632,
			"uri": "https://vr.google.com/shaders/w/fs.glsl"
		},
		"vertex_mat24": {
			"type": 35633,
			"uri": "https://vr.google.com/shaders/w/glassVS.glsl"
		},
		"fragment_mat24": {
			"type": 35632,
			"uri": "https://vr.google.com/shaders/w/glassFS.glsl"
		}
	},
	"programs": {
		"program_mat23": {
			"attributes": [
				"a_position",
				"a_normal",
				"a_color"				
			],
			"vertexShader": "vertex_mat23",
			"fragmentShader": "fragment_mat23"
		},
		"program_mat24": {
			"attributes": [
				"a_position",
				"a_normal",
				"a_color"				
			],
			"vertexShader": "vertex_mat24",
			"fragmentShader": "fragment_mat24"
		}
	},
	"techniques": {
		"technique_mat23": {
			"program": "program_mat23",
			"extras": {"gvrss" : "https://vr.google.com/shaders/w/gvrss/paper.json"},
			"parameters": {
				"position": {
					"type": 35665,
					"semantic": "POSITION"
				},
				"normal": {
					"type": 35665,
					"semantic": "NORMAL"
				},
				"color": {
					"type": 35666,
					"semantic": "COLOR"
				},
				"modelViewMatrix": {
					"type": 35676,
					"semantic": "MODELVIEW"
				},
				"projectionMatrix": {
					"type": 35676,
					"semantic": "PROJECTION"
				},
				"normalMatrix": {
					"type": 35675,
					"semantic": "MODELVIEWINVERSETRANSPOSE"
				},
				"color": {
					"type": 35666
				},
				"roughness": {
					"type": 5126
				},
				"metallic": {
					"type": 5126
				},
				"light0Pos": {
					"type": 35666
				},
				"light0Color": {
					"type": 35666
				},
				"light1Pos": {
					"type": 35666
				},
				"light1Color": {
					"type": 35666
				}				
			},
			"attributes": {
				"a_position": "position",
				"a_normal": "normal",
				"a_color": "color"				
			},
			"uniforms": {
				"u_modelViewMatrix": "modelViewMatrix",
				"u_projectionMatrix": "projectionMatrix",
				"u_normalMatrix": "normalMatrix",
				"u_color": "color",
				"u_roughness": "roughness",
				"u_metallic": "metallic",
				"u_light0Pos": "light0Pos",
				"u_light0Color": "light0Color",
				"u_light1Pos": "light1Pos",
				"u_light1Color": "light1Color"				
			},
			"states": {
				"enable": [
					2929,
					2884
				],
				"functions": {
					"cullFace": [1029]
				}
			}
		},
		"technique_mat24": {
			"program": "program_mat24",
			"extras": {"gvrss" : "https://vr.google.com/shaders/w/gvrss/glass.json"},
			"parameters": {
				"position": {
					"type": 35665,
					"semantic": "POSITION"
				},
				"normal": {
					"type": 35665,
					"semantic": "NORMAL"
				},
				"color": {
					"type": 35666,
					"semantic": "COLOR"
				},
				"modelViewMatrix": {
					"type": 35676,
					"semantic": "MODELVIEW"
				},
				"projectionMatrix": {
					"type": 35676,
					"semantic": "PROJECTION"
				},
				"normalMatrix": {
					"type": 35675,
					"semantic": "MODELVIEWINVERSETRANSPOSE"
				},
				"color": {
					"type": 35666
				},
				"roughness": {
					"type": 5126
				},
				"metallic": {
					"type": 5126
				},
				"light0Pos": {
					"type": 35666
				},
				"light0Color": {
					"type": 35666
				},
				"light1Pos": {
					"type": 35666
				},
				"light1Color": {
					"type": 35666
				}				
			},
			"attributes": {
				"a_position": "position",
				"a_normal": "normal",
				"a_color": "color"				
			},
			"uniforms": {
				"u_modelViewMatrix": "modelViewMatrix",
				"u_projectionMatrix": "projectionMatrix",
				"u_normalMatrix": "normalMatrix",
				"u_color": "color",
				"u_roughness": "roughness",
				"u_metallic": "metallic",
				"u_light0Pos": "light0Pos",
				"u_light0Color": "light0Color",
				"u_light1Pos": "light1Pos",
				"u_light1Color": "light1Color"				
			},
			"states": {
				"enable": [
					2929,
					3042
				],
				"functions": {
					"blendFuncSeparate": [775, 774, 773, 772],
					"depthMask": [true]
				}
			}
		}
	},
	"materials": {
		"material_mat23": {
			"technique": "technique_mat23",
			"values": {
				"color": [0.1019608, 0.1019608, 0.1019608, 1],
				"roughness": 1,
				"metallic": 0,
				"light0Pos": [-0.02, 4.11, -0.54, 0],
				"light0Color": [1.28, 1.232075, 1.101177, 0],
				"light1Pos": [0.02, -4.11, 0.54, 0],
				"light1Color": [0.2941177, 0.2953672, 0.32, 0]				
			},
			"name": "material_mat23"
		},
		"material_mat24": {
			"technique": "technique_mat24",
			"values": {
				"color": [0.8392157, 0.8392157, 0.8392157, 0.2509804],
				"roughness": 0,
				"metallic": 0,
				"light0Pos": [-0.02, 4.11, -0.54, 0],
				"light0Color": [1.28, 1.232075, 1.101177, 0],
				"light1Pos": [0.02, -4.11, 0.54, 0],
				"light1Color": [0.2941177, 0.2953672, 0.32, 0]				
			},
			"name": "material_mat24"
		}
	},
	"nodes": {
		"node_MeshObject839469056-PolyPaper23": {
			"name": "node_MeshObject839469056-PolyPaper23",
			"meshes": [
				"mesh_m0-PolyPaper23_-106564"
			],
			"matrix": [1, 0, 0, 0, 0, 1, 0, 0, 0, 0, 1, 0, 0, 0, 0, 1]
		},
		"node_MeshObject1411548160-PolyGlass24": {
			"name": "node_MeshObject1411548160-PolyGlass24",
			"meshes": [
				"mesh_m1-PolyGlass24_-106570"
			],
			"matrix": [1, 0, 0, 0, 0, 1, 0, 0, 0, 0, 1, 0, 0, 0, 0, 1]
		},
		"node_MeshObject1983627264-PolyPaper23": {
			"name": "node_MeshObject1983627264-PolyPaper23",
			"meshes": [
				"mesh_m2-PolyPaper23_-106576"
			],
			"matrix": [1, 0, 0, 0, 0, 1, 0, 0, 0, 0, 1, 0, 0, 0, 0, 1]
		}
	},
	"scene": "defaultScene",
	"scenes": {
		"defaultScene": {
			"nodes": [
				"node_MeshObject839469056-PolyPaper23",
				"node_MeshObject1411548160-PolyGlass24",
				"node_MeshObject1983627264-PolyPaper23"
			],
			"extras": {

			}
		}
	}
}