{
	"asset": {
		"generator": "Blocks 4.0.1RC0 SVR",
		"version": "1.1",
		"copyright": "Unknown"
	},
	"buffers": {
		"model": {
			"byteLength": 201656,
			"type": "arraybuffer",
			"uri": "model.bin"
		}
	},
	"accessors": {
		"accessor_position_m0-PolyGlass24_-11320": {
			"bufferView": "vec3BufferView",
			"byteOffset": 0,
			"byteStride": 12,
			"componentType": 5126,
			"count": 4192,
			"max": [ 0.2079376, 1.069846, 4.352024 ],
			"min": [ -0.1701216, 0.6260111, 3.972492 ],
			"type": "VEC3"
		 },
		"accessor_normal_m0-PolyGlass24_-11320": {
			"bufferView": "vec3BufferView",
			"byteOffset": 50304,
			"byteStride": 12,
			"componentType": 5126,
			"count": 4192,
			"max": [ 0.9990921, 0.9982852, 0.9993558 ],
			"min": [ -0.9990921, -0.9999066, -0.9993558 ],
			"type": "VEC3"
		 },
		"accessor_color_m0-PolyGlass24_-11320": {
			"bufferView": "vec4BufferView",
			"byteOffset": 0,
			"byteStride": 16,
			"componentType": 5126,
			"count": 4192,
			"max": [ 1, 1, 1, 1 ],
			"min": [ 1, 1, 1, 1 ],
			"type": "VEC4"
		 },
		"accessor_indices_0_m0-PolyGlass24_-11320": {
			"bufferView": "ushortBufferView",
			"byteOffset": 0,
			"byteStride": 0,
			"componentType": 5123,
			"count": 5886,
			"max": [ 4191 ],
			"min": [ 0 ],
			"type": "SCALAR"
		 },
		"accessor_position_m1-PolyPaper10_-11326": {
			"bufferView": "vec3BufferView",
			"byteOffset": 100608,
			"byteStride": 12,
			"componentType": 5126,
			"count": 520,
			"max": [ 0.1845443, 1.035385, 4.329624 ],
			"min": [ -0.1516334, 0.6386598, 3.992813 ],
			"type": "VEC3"
		 },
		"accessor_normal_m1-PolyPaper10_-11326": {
			"bufferView": "vec3BufferView",
			"byteOffset": 106848,
			"byteStride": 12,
			"componentType": 5126,
			"count": 520,
			"max": [ 0.9969661, 0.9990004, 0.9966054 ],
			"min": [ -0.996966, -0.9999562, -0.9966057 ],
			"type": "VEC3"
		 },
		"accessor_color_m1-PolyPaper10_-11326": {
			"bufferView": "vec4BufferView",
			"byteOffset": 67072,
			"byteStride": 16,
			"componentType": 5126,
			"count": 520,
			"max": [ 1, 0.9215686, 0.2313726, 1 ],
			"min": [ 1, 0.9215686, 0.2313726, 1 ],
			"type": "VEC4"
		 },
		"accessor_indices_0_m1-PolyPaper10_-11326": {
			"bufferView": "ushortBufferView",
			"byteOffset": 11772,
			"byteStride": 0,
			"componentType": 5123,
			"count": 702,
			"max": [ 519 ],
			"min": [ 0 ],
			"type": "SCALAR"
		 }
	},
	"bufferViews": {
		"ushortBufferView": {
			"buffer": "model",
			"byteLength": 13176,
			"byteOffset": 0,
			"target": 34963
		},
		"vec3BufferView": {
			"buffer": "model",
			"byteLength": 113088,
			"byteOffset": 13176,
			"target": 34962
		},
		"vec4BufferView": {
			"buffer": "model",
			"byteLength": 75392,
			"byteOffset": 126264,
			"target": 34962
		}
	},
	"meshes": {
		"mesh_m0-PolyGlass24_-11320": {
			"name": "mesh_m0-PolyGlass24_-11320",
			"primitives": [
				{
					"attributes": {
						"POSITION": "accessor_position_m0-PolyGlass24_-11320",
						"NORMAL": "accessor_normal_m0-PolyGlass24_-11320",
						"COLOR": "accessor_color_m0-PolyGlass24_-11320"
					},
					"indices": "accessor_indices_0_m0-PolyGlass24_-11320",
					"material": "material_mat24",
					"mode": 4
				}
			]
		},
		"mesh_m1-PolyPaper10_-11326": {
			"name": "mesh_m1-PolyPaper10_-11326",
			"primitives": [
				{
					"attributes": {
						"POSITION": "accessor_position_m1-PolyPaper10_-11326",
						"NORMAL": "accessor_normal_m1-PolyPaper10_-11326",
						"COLOR": "accessor_color_m1-PolyPaper10_-11326"
					},
					"indices": "accessor_indices_0_m1-PolyPaper10_-11326",
					"material": "material_mat10",
					"mode": 4
				}
			]
		}
	},
	"shaders": {
		"vertex_mat24": {
			"type": 35633,
			"uri": "https://vr.google.com/shaders/w/glassVS.glsl"
		},
		"fragment_mat24": {
			"type": 35632,
			"uri": "https://vr.google.com/shaders/w/glassFS.glsl"
		},
		"vertex_mat10": {
			"type": 35633,
			"uri": "https://vr.google.com/shaders/w/vs.glsl"
		},
		"fragment_mat10": {
			"type": 35632,
			"uri": "https://vr.google.com/shaders/w/fs.glsl"
		}
	},
	"programs": {
		"program_mat24": {
			"attributes": [
				"a_position",
				"a_normal",
				"a_color"				
			],
			"vertexShader": "vertex_mat24",
			"fragmentShader": "fragment_mat24"
		},
		"program_mat10": {
			"attributes": [
				"a_position",
				"a_normal",
				"a_color"				
			],
			"vertexShader": "vertex_mat10",
			"fragmentShader": "fragment_mat10"
		}
	},
	"techniques": {
		"technique_mat24": {
			"program": "program_mat24",
			"extras": {"gvrss" : "https://vr.google.com/shaders/w/gvrss/glass.json"},
			"parameters": {
				"position": {
					"type": 35665,
					"semantic": "POSITION"
				},
				"normal": {
					"type": 35665,
					"semantic": "NORMAL"
				},
				"color": {
					"type": 35666,
					"semantic": "COLOR"
				},
				"modelViewMatrix": {
					"type": 35676,
					"semantic": "MODELVIEW"
				},
				"projectionMatrix": {
					"type": 35676,
					"semantic": "PROJECTION"
				},
				"normalMatrix": {
					"type": 35675,
					"semantic": "MODELVIEWINVERSETRANSPOSE"
				},
				"color": {
					"type": 35666
				},
				"roughness": {
					"type": 5126
				},
				"metallic": {
					"type": 5126
				},
				"light0Pos": {
					"type": 35666
				},
				"light0Color": {
					"type": 35666
				},
				"light1Pos": {
					"type": 35666
				},
				"light1Color": {
					"type": 35666
				}				
			},
			"attributes": {
				"a_position": "position",
				"a_normal": "normal",
				"a_color": "color"				
			},
			"uniforms": {
				"u_modelViewMatrix": "modelViewMatrix",
				"u_projectionMatrix": "projectionMatrix",
				"u_normalMatrix": "normalMatrix",
				"u_color": "color",
				"u_roughness": "roughness",
				"u_metallic": "metallic",
				"u_light0Pos": "light0Pos",
				"u_light0Color": "light0Color",
				"u_light1Pos": "light1Pos",
				"u_light1Color": "light1Color"				
			},
			"states": {
				"enable": [
					2929,
					3042
				],
				"functions": {
					"blendFuncSeparate": [775, 774, 773, 772],
					"depthMask": [true]
				}
			}
		},
		"technique_mat10": {
			"program": "program_mat10",
			"extras": {"gvrss" : "https://vr.google.com/shaders/w/gvrss/paper.json"},
			"parameters": {
				"position": {
					"type": 35665,
					"semantic": "POSITION"
				},
				"normal": {
					"type": 35665,
					"semantic": "NORMAL"
				},
				"color": {
					"type": 35666,
					"semantic": "COLOR"
				},
				"modelViewMatrix": {
					"type": 35676,
					"semantic": "MODELVIEW"
				},
				"projectionMatrix": {
					"type": 35676,
					"semantic": "PROJECTION"
				},
				"normalMatrix": {
					"type": 35675,
					"semantic": "MODELVIEWINVERSETRANSPOSE"
				},
				"color": {
					"type": 35666
				},
				"roughness": {
					"type": 5126
				},
				"metallic": {
					"type": 5126
				},
				"light0Pos": {
					"type": 35666
				},
				"light0Color": {
					"type": 35666
				},
				"light1Pos": {
					"type": 35666
				},
				"light1Color": {
					"type": 35666
				}				
			},
			"attributes": {
				"a_position": "position",
				"a_normal": "normal",
				"a_color": "color"				
			},
			"uniforms": {
				"u_modelViewMatrix": "modelViewMatrix",
				"u_projectionMatrix": "projectionMatrix",
				"u_normalMatrix": "normalMatrix",
				"u_color": "color",
				"u_roughness": "roughness",
				"u_metallic": "metallic",
				"u_light0Pos": "light0Pos",
				"u_light0Color": "light0Color",
				"u_light1Pos": "light1Pos",
				"u_light1Color": "light1Color"				
			},
			"states": {
				"enable": [
					2929,
					2884
				],
				"functions": {
					"cullFace": [1029]
				}
			}
		}
	},
	"materials": {
		"material_mat24": {
			"technique": "technique_mat24",
			"values": {
				"color": [0.8392157, 0.8392157, 0.8392157, 0.2509804],
				"roughness": 0,
				"metallic": 0,
				"light0Pos": [-0.02, 4.11, -0.54, 0],
				"light0Color": [1.28, 1.232075, 1.101177, 0],
				"light1Pos": [0.02, -4.11, 0.54, 0],
				"light1Color": [0.2941177, 0.2953672, 0.32, 0]				
			},
			"name": "material_mat24"
		},
		"material_mat10": {
			"technique": "technique_mat10",
			"values": {
				"color": [0.2980392, 0.6862745, 0.3137255, 1],
				"roughness": 1,
				"metallic": 0,
				"light0Pos": [-0.02, 4.11, -0.54, 0],
				"light0Color": [1.28, 1.232075, 1.101177, 0],
				"light1Pos": [0.02, -4.11, 0.54, 0],
				"light1Color": [0.2941177, 0.2953672, 0.32, 0]				
			},
			"name": "material_mat10"
		}
	},
	"nodes": {
		"node_MeshObject421017600-PolyGlass24": {
			"name": "node_MeshObject421017600-PolyGlass24",
			"meshes": [
				"mesh_m0-PolyGlass24_-11320"
			],
			"matrix": [1, 0, 0, 0, 0, 1, 0, 0, 0, 0, 1, 0, 0, 0, 0, 1]
		},
		"node_MeshObject993096704-PolyPaper10": {
			"name": "node_MeshObject993096704-PolyPaper10",
			"meshes": [
				"mesh_m1-PolyPaper10_-11326"
			],
			"matrix": [1, 0, 0, 0, 0, 1, 0, 0, 0, 0, 1, 0, 0, 0, 0, 1]
		}
	},
	"scene": "defaultScene",
	"scenes": {
		"defaultScene": {
			"nodes": [
				"node_MeshObject421017600-PolyGlass24",
				"node_MeshObject993096704-PolyPaper10"
			],
			"extras": {

			}
		}
	}
}